<svg id="bootstrap-4" xmlns="http://www.w3.org/2000/svg" width="57" height="57" viewBox="0 0 57 57">
  <path id="Path_54" data-name="Path 54" d="M0,49.65A7.349,7.349,0,0,0,7.35,57h42.3A7.35,7.35,0,0,0,57,49.65V7.35A7.35,7.35,0,0,0,49.65,0H7.35A7.35,7.35,0,0,0,0,7.35v42.3Z" fill="#563d7c"/>
  <path id="Path_55" data-name="Path 55" d="M79.664,64.469V56.4h7.105a11.052,11.052,0,0,1,1.958.169,4.886,4.886,0,0,1,1.668.6,3.222,3.222,0,0,1,1.16,1.208,4.013,4.013,0,0,1,.435,1.982A3.651,3.651,0,0,1,90.684,63.5a5.455,5.455,0,0,1-3.335.967ZM72.075,50.5V85.012H88.8a17.645,17.645,0,0,0,4.519-.58,12.087,12.087,0,0,0,3.915-1.788,8.809,8.809,0,0,0,2.731-3.118,10.55,10.55,0,0,0-.556-10.054,8.3,8.3,0,0,0-4.761-3.214,8.6,8.6,0,0,0,3.5-2.852,7.56,7.56,0,0,0,1.184-4.35,9.257,9.257,0,0,0-.8-4.06,6.633,6.633,0,0,0-2.248-2.634,9.7,9.7,0,0,0-3.48-1.426,21.485,21.485,0,0,0-4.5-.435Zm7.589,28.615V69.641h8.265a6.394,6.394,0,0,1,3.964,1.136,4.462,4.462,0,0,1,1.5,3.794,4.743,4.743,0,0,1-.459,2.223A3.647,3.647,0,0,1,91.7,78.172a5.22,5.22,0,0,1-1.788.725,10.147,10.147,0,0,1-2.127.217Z" transform="translate(-56.027 -39.256)" fill="#fff"/>
</svg>
