<svg xmlns="http://www.w3.org/2000/svg" xmlns:xlink="http://www.w3.org/1999/xlink" width="124.058" height="28.583" viewBox="0 0 124.058 28.583">
  <defs>
    <clipPath id="clip-path">
      <path id="Path_20" data-name="Path 20" d="M8.919,24.631a2.153,2.153,0,0,1-2.159-2.056,2.087,2.087,0,0,1,2.159-2.056,2.087,2.087,0,0,1,2.159,2.056,2.153,2.153,0,0,1-2.159,2.056ZM35.445,13.424a6.124,6.124,0,0,0-2.57-4.01L32.361,9l-.411.514a5.568,5.568,0,0,0-.1,6.375c-.411.206-.925.411-1.337.617a8.66,8.66,0,0,1-2.776.411H1.1l-.1.617A11.567,11.567,0,0,0,1.927,23.4l.411.72v.1c2.468,4.113,6.889,5.963,11.721,5.963,9.253,0,16.862-4.01,20.46-12.646,2.365.1,4.73-.514,5.861-2.776l.308-.514-.514-.308A6.275,6.275,0,0,0,35.445,13.424ZM22.182,11.779h-4.01v4.01h4.01Zm0-5.038h-4.01v4.01h4.01Zm0-5.141h-4.01V5.61h4.01Zm4.935,10.179h-4.01v4.01h4.01Zm-14.908,0H8.2v4.01h4.01v-4.01Zm5.038,0h-4.01v4.01h4.01Zm-9.973,0H3.264v4.01h4.01Zm9.973-5.038h-4.01v4.01h4.01Zm-5.038,0H8.2v4.01h4.01V6.741Z" transform="translate(-0.94 -1.6)"/>
    </clipPath>
  </defs>
  <g id="docker-1" transform="translate(-0.94 -1.6)">
    <path id="SVGID_1_" d="M8.919,24.631a2.153,2.153,0,0,1-2.159-2.056,2.087,2.087,0,0,1,2.159-2.056,2.087,2.087,0,0,1,2.159,2.056,2.153,2.153,0,0,1-2.159,2.056ZM35.445,13.424a6.124,6.124,0,0,0-2.57-4.01L32.361,9l-.411.514a5.568,5.568,0,0,0-.1,6.375c-.411.206-.925.411-1.337.617a8.66,8.66,0,0,1-2.776.411H1.1l-.1.617A11.567,11.567,0,0,0,1.927,23.4l.411.72v.1c2.468,4.113,6.889,5.963,11.721,5.963,9.253,0,16.862-4.01,20.46-12.646,2.365.1,4.73-.514,5.861-2.776l.308-.514-.514-.308A6.275,6.275,0,0,0,35.445,13.424ZM22.182,11.779h-4.01v4.01h4.01Zm0-5.038h-4.01v4.01h4.01Zm0-5.141h-4.01V5.61h4.01Zm4.935,10.179h-4.01v4.01h4.01Zm-14.908,0H8.2v4.01h4.01v-4.01Zm5.038,0h-4.01v4.01h4.01Zm-9.973,0H3.264v4.01h4.01Zm9.973-5.038h-4.01v4.01h4.01Zm-5.038,0H8.2v4.01h4.01V6.741Z" transform="translate(0 0)" fill="#061d2f"/>
    <g id="Group_28" data-name="Group 28" transform="translate(0.94 1.6)" clip-path="url(#clip-path)">
      <path id="SVGID_3_" d="M-48.8-21H1261.9V134.664H-48.8Z" transform="translate(-2.341 -2.236)" fill="#061d2f"/>
    </g>
    <path id="docker_2_" d="M103.48,22c1.748-1.542,3.5-2.982,5.244-4.524.617-.514,1.234-1.028,1.851-1.645a5.108,5.108,0,0,0-1.954-1.337,4.641,4.641,0,0,0-4.01.411,4.376,4.376,0,0,0-2.262,4.318,3.707,3.707,0,0,0,.617,2.056,2.374,2.374,0,0,1,.514.72m2.056,1.439a5.065,5.065,0,0,0,2.776.1,5.25,5.25,0,0,1,2.056-.617h.206a.927.927,0,0,1,.617.617,1.054,1.054,0,0,1-.411,1.542l-.206.1a6.638,6.638,0,0,1-6.889-.1,7.088,7.088,0,0,1-2.468-2.468l-.1-.206a6.682,6.682,0,0,1,.411-7.506,6.568,6.568,0,0,1,2.159-1.954l.308-.206a6.807,6.807,0,0,1,6.58-.1,6.7,6.7,0,0,1,2.776,2.57l.1.206c.514.823-.1,1.542-.823,2.056l-2.159,1.851c-1.851,1.439-3.393,2.776-4.935,4.113ZM122.3,12.127h.206a1.188,1.188,0,0,1,1.234,1.234c0,1.028-.925,1.234-1.748,1.234a4.191,4.191,0,0,0-2.776,1.337,4.5,4.5,0,0,0-1.337,3.29v5.758a1.163,1.163,0,0,1-1.131,1.234h-.206a1.109,1.109,0,0,1-1.131-1.234V18.913a6.651,6.651,0,0,1,2.982-5.552,7.267,7.267,0,0,1,3.907-1.234ZM92.89,16.137l2.776-2.776c.308-.206,1.234-1.337,1.645-1.337h.411a1.014,1.014,0,0,1,.925,1.028v.206c0,.411-.514.823-.72,1.131-.514.617-1.131,1.131-1.645,1.748L93.4,19.015l3.7,3.7,1.028,1.028.411.411c.1.206.206.308.206.514v.308a1.093,1.093,0,0,1-1.028.925h-.206c-.411,0-.823-.411-1.131-.72-.514-.514-1.131-1.028-1.645-1.645L92.89,21.791V24.67A1.163,1.163,0,0,1,91.759,25.9h-.206a1.109,1.109,0,0,1-1.131-1.234V8.837a1.079,1.079,0,0,1,1.131-1.131h.206A1.079,1.079,0,0,1,92.89,8.837Zm-7.608-1.542a3.268,3.268,0,0,0-1.439-.206,4.324,4.324,0,0,0-4.215,2.776,4.172,4.172,0,0,0-.411,1.954,4.454,4.454,0,0,0,2.879,4.318,5.533,5.533,0,0,0,2.262.411,6.824,6.824,0,0,0,2.056-.617h.514a1.014,1.014,0,0,1,.925,1.028v.206c0,1.439-2.673,1.748-3.6,1.851a6.815,6.815,0,0,1-7.2-5.038,5.093,5.093,0,0,1-.206-1.748v-.514a6.4,6.4,0,0,1,3.5-5.861,6.471,6.471,0,0,1,3.393-.925h.514a6.053,6.053,0,0,1,3.5,1.028l.1.1.1.1a1.461,1.461,0,0,1,.206.617v.206c0,.617-.411.925-1.028,1.028h-.1a11.358,11.358,0,0,1-1.748-.72ZM63.69,19.015a4.668,4.668,0,0,0,2.365,4.01,4.776,4.776,0,0,0,2.365.617,4.668,4.668,0,0,0,4.01-2.365,4.776,4.776,0,0,0,.617-2.365,4.66,4.66,0,0,0-2.159-3.907,4.314,4.314,0,0,0-2.468-.72A4.47,4.47,0,0,0,64.2,17.062a2.956,2.956,0,0,0-.514,1.954Zm4.318-6.992h.308a6.751,6.751,0,0,1,6.169,3.7,6.281,6.281,0,0,1,.823,3.084v.514a6.4,6.4,0,0,1-3.5,5.861,6.471,6.471,0,0,1-3.393.925h-.514a6.4,6.4,0,0,1-5.861-3.5,6.471,6.471,0,0,1-.925-3.393v-.514a6.4,6.4,0,0,1,3.5-5.861,7.854,7.854,0,0,1,3.393-.823ZM48.062,19.015a4.405,4.405,0,0,0,2.57,4.113,4.779,4.779,0,0,0,2.159.514A4.509,4.509,0,0,0,56.9,21.277a4.776,4.776,0,0,0,.617-2.365,4.391,4.391,0,0,0-2.056-3.8,4.828,4.828,0,0,0-2.673-.823,4.47,4.47,0,0,0-4.215,2.776,5.028,5.028,0,0,0-.514,1.954Zm9.459-5.244V8.734A1.163,1.163,0,0,1,58.652,7.5h.206a1.109,1.109,0,0,1,1.131,1.234v10.59a6.4,6.4,0,0,1-3.5,5.861,6.471,6.471,0,0,1-3.393.925h-.514a6.4,6.4,0,0,1-5.861-3.5,6.471,6.471,0,0,1-.925-3.393v-.514a6.4,6.4,0,0,1,3.5-5.861,6.471,6.471,0,0,1,3.393-.925H53.2a7.1,7.1,0,0,1,4.318,1.851Z" transform="translate(1.263 0.166)" fill="#061d2f"/>
  </g>
</svg>
