<svg id="Group_5471" data-name="Group 5471" xmlns="http://www.w3.org/2000/svg" width="26.004" height="48.365" viewBox="0 0 26.004 48.365">
  <g id="Group_5470" data-name="Group 5470">
    <g id="Group_5469" data-name="Group 5469" transform="translate(0 0)">
      <path id="Path_6914" data-name="Path 6914" d="M265.986,322.05H265.8v-.1h.489v.1h-.18v.509h-.128Zm.979.027h0l-.18.482H266.7l-.179-.482h0v.482h-.12v-.611h.176l.168.432.165-.432h.175v.611h-.117Zm-17.289-12.511s-1.268.738.9.986a18.986,18.986,0,0,0,6.87-.291,12.035,12.035,0,0,0,1.825.89c-6.493,2.784-14.7-.16-9.6-1.586m-.793-3.632s-1.422,1.053.75,1.277a26.769,26.769,0,0,0,8.863-.425,3.945,3.945,0,0,0,1.366.832c-7.852,2.3-16.6.181-10.979-1.684" transform="translate(-241.077 -283.911)" fill="#5382a1"/>
      <path id="Path_6915" data-name="Path 6915" d="M254.208,302.741c1.6,1.842-.421,3.5-.421,3.5s4.064-2.1,2.2-4.724c-1.743-2.449-3.08-3.666,4.155-7.862,0,0-11.356,2.836-5.932,9.086" transform="translate(-239.712 -286.88)" fill="#f8981d"/>
      <path id="Path_6916" data-name="Path 6916" d="M265.193,313.047s.939.774-1.033,1.371c-3.749,1.136-15.6,1.479-18.894.046-1.183-.515,1.036-1.231,1.734-1.38a4.532,4.532,0,0,1,1.144-.129c-1.315-.926-8.507,1.822-3.652,2.608,13.241,2.148,24.136-.966,20.7-2.516m-13.876-10.082s-6.029,1.433-2.136,1.953a45.333,45.333,0,0,0,7.976-.086c2.5-.211,5-.658,5-.658a10.567,10.567,0,0,0-1.517.811c-6.123,1.611-17.95.862-14.545-.786a11.406,11.406,0,0,1,5.22-1.234m10.816,6.046c6.225-3.234,3.347-6.342,1.337-5.923a4.771,4.771,0,0,0-.712.191,1.126,1.126,0,0,1,.533-.41c3.974-1.4,7.03,4.12-1.284,6.3a.534.534,0,0,0,.125-.163" transform="translate(-242.109 -284.706)" fill="#5382a1"/>
      <path id="Path_6917" data-name="Path 6917" d="M256.845,288.2s3.446,3.448-3.27,8.751c-5.386,4.253-1.228,6.678,0,9.449-3.143-2.836-5.45-5.333-3.9-7.657,2.271-3.411,8.565-5.065,7.174-10.543" transform="translate(-240.574 -288.199)" fill="#f8981d"/>
      <path id="Path_6918" data-name="Path 6918" d="M252.069,315.422c5.973.383,15.147-.212,15.365-3.04,0,0-.417,1.072-4.937,1.924a49.121,49.121,0,0,1-15.119.232s.765.632,4.691.884m-.98,10.8a2.713,2.713,0,0,1-1.694.764,1.079,1.079,0,0,1-1.173-1.191c0-.793.441-1.373,2.212-1.373h.656v1.8m1.553,1.755v-5.432c0-1.387-.79-2.3-2.7-2.3a7.1,7.1,0,0,0-2.883.626l.228.961a6.69,6.69,0,0,1,2.227-.443c1.1,0,1.572.443,1.572,1.358v.685h-.549c-2.67,0-3.876,1.037-3.876,2.593,0,1.342.795,2.106,2.29,2.106a3.447,3.447,0,0,0,2.347-.977l.122.825Zm5.191,0h-1.938l-2.335-7.6h1.694l1.448,4.668.323,1.4a29.192,29.192,0,0,0,1.51-6.071h1.648a30.815,30.815,0,0,1-2.349,7.6m7.441-1.755a2.719,2.719,0,0,1-1.7.764,1.08,1.08,0,0,1-1.173-1.191c0-.793.442-1.373,2.213-1.373h.656v1.8m1.555,1.755v-5.432c0-1.387-.792-2.3-2.7-2.3a7.1,7.1,0,0,0-2.882.626l.228.961a6.7,6.7,0,0,1,2.228-.443c1.1,0,1.571.443,1.571,1.358v.685h-.549c-2.671,0-3.876,1.037-3.876,2.593,0,1.342.794,2.106,2.289,2.106a3.453,3.453,0,0,0,2.348-.977l.123.825Zm-21.869,1.29a4.084,4.084,0,0,1-1.942,1.449l-.769-.9a3.219,3.219,0,0,0,1.346-1.262,4.872,4.872,0,0,0,.292-2.2v-8.673h1.652v8.553c0,1.689-.135,2.369-.579,3.035" transform="translate(-242.249 -282.352)" fill="#5382a1"/>
    </g>
  </g>
</svg>
