<svg id="Group_5568" data-name="Group 5568" xmlns="http://www.w3.org/2000/svg" width="103.906" height="27.452" viewBox="0 0 103.906 27.452">
  <path id="Path_7062" data-name="Path 7062" d="M655.2,430.333c-1.46-6.387-4.461-8.1-5.233-9.279a11.843,11.843,0,0,1-.853-1.652,1.6,1.6,0,0,1-.606,1.349,15.246,15.246,0,0,0-5.4,11.455c-.331,6.746,4.956,10.931,5.673,11.372a1.523,1.523,0,0,0,1.515-.248,13.159,13.159,0,0,0,4.9-13" transform="translate(-643.1 -419.402)" fill="#10aa50"/>
  <path id="Path_7063" data-name="Path 7063" d="M647.748,434.192a13.222,13.222,0,0,1-.579,3.607q.165,1.642.385,3.276h.552a27.061,27.061,0,0,1,.6-3.524c-.715-.359-.936-1.9-.964-3.36" transform="translate(-641.511 -413.624)" fill="#b8c4c2"/>
  <path id="Path_7064" data-name="Path 7064" d="M648.587,443.291h0c-.716-.331-.937-1.9-.964-3.36a65.65,65.65,0,0,0,.165-7.214c-.028-1.267.026-11.7-.3-13.217.138.3.467.992.77,1.514.77,1.211,3.773,2.891,5.232,9.279a13.183,13.183,0,0,1-4.9,13" transform="translate(-641.387 -419.364)" fill="#12924f"/>
  <path id="Path_7065" data-name="Path 7065" d="M740.84,438.464a1.55,1.55,0,0,1-1.57-1.531v-.039a1.549,1.549,0,0,1,1.53-1.569h.04a1.569,1.569,0,0,1,0,3.139m0-3a1.432,1.432,0,1,0,1.431,1.431,1.423,1.423,0,0,0-1.431-1.431m.385,2.423-.414-.88h-.33v.88h-.248V435.9h.577c.442,0,.608.192.608.551a.472.472,0,0,1-.387.523l.413.908Zm-.718-1.074h.332c.275,0,.385-.11.385-.357s-.11-.331-.414-.331h-.3Zm-22.991.22a3.623,3.623,0,0,0,2.011.469,3.942,3.942,0,0,0,2.836-1.019,5.437,5.437,0,0,0,1.6-4.268,5.052,5.052,0,0,0-2.341-4.6,6.324,6.324,0,0,0-3.36-.77,3.251,3.251,0,0,0-.99.11.5.5,0,0,0-.193.274c-.028.359-.028,3.085-.028,4.709l.028,4.24a1.358,1.358,0,0,0,.441.854m-4.019-11.1c.33,0,1.651.056,2.257.056,1.129,0,1.927-.056,4.048-.056a6.457,6.457,0,0,1,4.35,1.4,5.816,5.816,0,0,1,1.983,4.571,5.961,5.961,0,0,1-2.452,5.121,8.236,8.236,0,0,1-5.093,1.432c-1.211,0-3.278-.028-5.04-.056h-.028c-.082-.165.138-.77.3-.8a2.941,2.941,0,0,0,.826-.165c.357-.138.441-.33.5-.99.056-1.239.029-2.727.029-4.379l-.029-4.268c-.054-.6-.33-.77-.853-.908-.275-.054-.634-.11-1.131-.193-.081-.11.223-.633.332-.77m17.594,1.019a.449.449,0,0,0-.192.33c-.028.716-.028,2.588-.028,3.883,0,.028.056.11.11.11.275.028.908.028,1.46.028a3.646,3.646,0,0,0,1.459-.221,1.914,1.914,0,0,0,.936-1.788c0-1.736-1.211-2.4-3-2.4-.138.028-.469.028-.744.056m4.6,7.984c0-1.762-1.295-2.754-3.662-2.754a6.574,6.574,0,0,0-1.019.028c-.056.028-.111.056-.111.11l.029,4.076a1.316,1.316,0,0,0,.578.964,3.785,3.785,0,0,0,1.541.22,2.467,2.467,0,0,0,2.644-2.644m-8.233-8.976c.192,0,.715.054,2.093.054l3.58-.026c1.541,0,3.69.551,3.69,2.863a2.816,2.816,0,0,1-1.845,2.506c-.054.026-.054.054,0,.082,1.487.385,2.809,1.293,2.809,3.057,0,1.706-1.074,2.78-2.616,3.47a8.444,8.444,0,0,1-3.3.551c-.91,0-3.332-.111-4.682-.083-.136-.056.139-.688.249-.8a5.294,5.294,0,0,0,.909-.138c.5-.11.549-.275.6-.992.028-.6.028-2.836.028-4.406v-4.324c-.028-.551-.221-.743-.606-.825-.3-.056-.8-.11-1.211-.193-.11-.11.193-.716.3-.8m-72.392,12.5a.753.753,0,0,1-.054-.413.51.51,0,0,1,.054-.275,5.9,5.9,0,0,0,.772-.166c.357-.082.5-.275.523-.743.056-1.075.056-3.085.026-4.517V432.3a.534.534,0,0,0-.192-.5,3.963,3.963,0,0,0-1.074-.467c-.165-.056-.275-.138-.249-.249,0-.11.11-.22.332-.274a11.449,11.449,0,0,0,2.726-.716.555.555,0,0,1,.082.275.459.459,0,0,1-.028.192,5.039,5.039,0,0,0-.028.661.179.179,0,0,0,.139.139.219.219,0,0,0,.11-.056,4.94,4.94,0,0,1,2.7-1.211,2.336,2.336,0,0,1,2.065,1.267.109.109,0,0,0,.11.054.145.145,0,0,0,.11-.054A5.331,5.331,0,0,1,666,430.093c1.654,0,2.645,1.239,2.645,3.3v3.662a.531.531,0,0,0,.33.413,5.007,5.007,0,0,0,1.018.248h.029a1.533,1.533,0,0,1-.111.688,2.836,2.836,0,0,1-.441-.028c-.33-.026-.825-.054-1.348-.054-1.1,0-1.68.028-2.232.054a1.356,1.356,0,0,1,0-.661,4.548,4.548,0,0,0,.662-.164c.357-.111.439-.277.469-.744,0-.331.081-3.222-.029-3.938a1.744,1.744,0,0,0-1.816-1.541,3.267,3.267,0,0,0-1.818.688c-.056.028-.056.11-.056.164a7.21,7.21,0,0,1,.082,1.46v3.276a.529.529,0,0,0,.413.551,1.211,1.211,0,0,0,.277.056c.166.028.33.082.579.11a1.517,1.517,0,0,1,0,.5c-.028.11-.056.166-.083.166-.6-.028-1.239-.028-2.147-.028-.275,0-.716,0-1.129.028-.331,0-.633.028-.8.028a.778.778,0,0,1-.054-.357.814.814,0,0,1,.054-.331c.083-.028.167-.028.249-.056.22-.026.385-.082.579-.11.3-.082.413-.247.441-.633a28.374,28.374,0,0,0-.028-4.076,1.682,1.682,0,0,0-1.736-1.542,3.4,3.4,0,0,0-1.818.69.638.638,0,0,0-.164.412v1.047l.028,3.58a.544.544,0,0,0,.5.551,3.343,3.343,0,0,0,.413.082c.11.028.22.028.33.056a1.462,1.462,0,0,1-.054.688,5.516,5.516,0,0,1-.634-.028c-.384-.028-.853-.028-1.375-.028-.634,0-1.075.028-1.432.028a1.318,1.318,0,0,1-.716.165" transform="translate(-638.503 -416.85)" fill="#21313c"/>
  <path id="Path_7066" data-name="Path 7066" d="M670.65,429.812a1.6,1.6,0,0,0-.964.274,2.737,2.737,0,0,0-1.046,2.534c0,2.341,1.183,3.965,2.864,3.965a1.755,1.755,0,0,0,1.239-.441,3.1,3.1,0,0,0,.8-2.477c-.056-2.314-1.183-3.855-2.891-3.855m.3,7.654c-3.03,0-4.1-2.231-4.1-4.3a3.9,3.9,0,0,1,1.762-3.386,5.223,5.223,0,0,1,2.727-.8,3.817,3.817,0,0,1,3.937,4.048,4.133,4.133,0,0,1-1.873,3.69,5.237,5.237,0,0,1-2.45.744m30.565-7.654a1.6,1.6,0,0,0-.965.274,2.737,2.737,0,0,0-1.046,2.534c0,2.341,1.185,3.965,2.863,3.965a1.761,1.761,0,0,0,1.24-.441,3.1,3.1,0,0,0,.8-2.477c-.056-2.314-1.185-3.855-2.891-3.855m.33,7.654c-3.029,0-4.1-2.231-4.1-4.3a3.9,3.9,0,0,1,1.762-3.386,5.226,5.226,0,0,1,2.726-.8,3.817,3.817,0,0,1,3.937,4.048,4.134,4.134,0,0,1-1.871,3.69,5.446,5.446,0,0,1-2.452.744" transform="translate(-633.821 -415.658)" fill="#21313c"/>
  <path id="Path_7067" data-name="Path 7067" d="M688.547,429.735c-.936,0-1.542.743-1.542,1.872,0,1.157.524,2.506,1.983,2.506a1.427,1.427,0,0,0,.936-.359,2.369,2.369,0,0,0,.551-1.652c.026-1.485-.716-2.367-1.928-2.367m-.11,7.874a1.657,1.657,0,0,0-.772.193c-.743.469-1.074.936-1.074,1.487a1.565,1.565,0,0,0,.634,1.295,3.178,3.178,0,0,0,2.147.661c1.818,0,2.616-.964,2.616-1.928a1.373,1.373,0,0,0-1.019-1.377,7.4,7.4,0,0,0-2.532-.331m.11,4.655a3.8,3.8,0,0,1-2.532-.744,2.311,2.311,0,0,1-.937-1.762,1.405,1.405,0,0,1,.359-.908,10.248,10.248,0,0,1,1.651-1.323c.029,0,.056-.054.056-.082,0-.056-.026-.083-.056-.083a1.721,1.721,0,0,1-1.156-1.128v-.056a.253.253,0,0,1,.11-.331c.111-.082.3-.192.5-.3a4.062,4.062,0,0,0,.8-.523.167.167,0,0,0,.028-.111c0-.056-.028-.082-.056-.082a2.839,2.839,0,0,1-.716-4.956,5.244,5.244,0,0,1,2.562-.854h.054a5.38,5.38,0,0,1,1.955.441,3,3,0,0,0,1.157.192,1.54,1.54,0,0,0,1.239-.467.689.689,0,0,1,.054.357,1.382,1.382,0,0,1-.22.826,1.006,1.006,0,0,1-.77.331h-.083a1.865,1.865,0,0,1-.469-.082l-.082.026c-.028.028,0,.083,0,.138v.028c.026.166.11.633.11.77a2.861,2.861,0,0,1-1.211,2.589,4.244,4.244,0,0,1-2.093.8,1.393,1.393,0,0,0-.247.028,2.2,2.2,0,0,0-.249.028h-.026c-.138.026-.5.22-.5.523,0,.248.167.579.937.633.164,0,.331.028.5.028a16.786,16.786,0,0,1,2.863.357,1.972,1.972,0,0,1,1.323,1.928,3.858,3.858,0,0,1-2.506,3.3,6.453,6.453,0,0,1-2.341.469m-4.625-5.673a3.265,3.265,0,0,1-1.157-.3.53.53,0,0,1-.138-.275c-.028-.606-.028-2.423-.028-3.58a4.233,4.233,0,0,0-.577-2.395,2.4,2.4,0,0,0-2.067-1.074,4.829,4.829,0,0,0-2.7,1.266c-.028.028-.166.138-.138-.054,0-.193.028-.606.054-.854a.374.374,0,0,0-.136-.357,12.331,12.331,0,0,1-2.755.715c-.439.083-.549.5-.081.634a3.768,3.768,0,0,1,1.046.467c.192.138.165.331.165.5.026,1.349.026,3.386-.029,4.516-.026.441-.136.6-.467.688h.028a5.263,5.263,0,0,1-.743.138,1,1,0,0,0,0,.8c.192,0,1.238-.056,2.064-.056,1.185,0,1.79.056,2.065.056a1.167,1.167,0,0,0,.083-.8,6.018,6.018,0,0,1-.827-.111c-.33-.082-.413-.248-.413-.6-.027-.936-.027-2.947-.027-4.3a.835.835,0,0,1,.22-.661,2.707,2.707,0,0,1,1.654-.606,1.956,1.956,0,0,1,1.238.413,1.8,1.8,0,0,1,.579,1.129c.083.77.054,2.286.054,3.58,0,.716-.054.91-.33.992a4.212,4.212,0,0,1-.826.166,1.142,1.142,0,0,0,0,.8c.523,0,1.129-.056,2.011-.056,1.1,0,1.816.056,2.092.056a1.26,1.26,0,0,0,.083-.826" transform="translate(-631.067 -415.666)" fill="#21313c"/>
</svg>
