<svg id="Group_5453" data-name="Group 5453" xmlns="http://www.w3.org/2000/svg" xmlns:xlink="http://www.w3.org/1999/xlink" width="47.872" height="26.929" viewBox="0 0 47.872 26.929">
  <defs>
    <clipPath id="clip-path">
      <rect id="Rectangle_393" data-name="Rectangle 393" width="47.872" height="26.929" fill="none"/>
    </clipPath>
  </defs>
  <g id="Group_5452" data-name="Group 5452" transform="translate(0 0)" clip-path="url(#clip-path)">
    <path id="Path_6890" data-name="Path 6890" d="M140.415,294.87c12.194,0,22.08-5.011,22.08-11.191s-9.886-11.19-22.08-11.19-22.081,5.011-22.081,11.19,9.887,11.191,22.081,11.191" transform="translate(-116.48 -270.214)" fill="#777bb3"/>
    <path id="Path_6891" data-name="Path 6891" d="M128.734,283.976a3.674,3.674,0,0,0,2.225-.549,2.98,2.98,0,0,0,.961-1.858,2,2,0,0,0-.178-1.691,2.521,2.521,0,0,0-1.82-.472h-1.6l-.889,4.57Zm-5.242,5.631a.248.248,0,0,1-.191-.091.252.252,0,0,1-.053-.206L125.6,277.2a.251.251,0,0,1,.245-.2h5.074a4.462,4.462,0,0,1,3.528,1.288,4.016,4.016,0,0,1,.689,3.566,5.5,5.5,0,0,1-1.734,3.1,4.94,4.94,0,0,1-1.848,1.108,8.4,8.4,0,0,1-2.539.325h-2.054l-.587,3.019a.248.248,0,0,1-.245.2Z" transform="translate(-115.293 -269.125)"/>
    <path id="Path_6892" data-name="Path 6892" d="M128.574,279.7h1.4c1.116,0,1.5.245,1.635.39a1.832,1.832,0,0,1,.118,1.477,2.739,2.739,0,0,1-.868,1.707,3.437,3.437,0,0,1-2.074.5h-1Zm2.4-2.909H125.9a.5.5,0,0,0-.489.4l-2.354,12.114a.5.5,0,0,0,.489.594h2.639a.5.5,0,0,0,.489-.4l.548-2.818h1.849a8.608,8.608,0,0,0,2.616-.339,5.177,5.177,0,0,0,1.941-1.162,5.916,5.916,0,0,0,1.17-1.468,5.987,5.987,0,0,0,.638-1.77,4.252,4.252,0,0,0-.746-3.779,4.694,4.694,0,0,0-3.715-1.373m-3.792,7.48h1.6a3.878,3.878,0,0,0,2.377-.6,3.192,3.192,0,0,0,1.056-2.008,2.2,2.2,0,0,0-.238-1.906,2.7,2.7,0,0,0-2.005-.555h-1.808l-.985,5.07m3.792-6.981a4.209,4.209,0,0,1,3.339,1.2,3.765,3.765,0,0,1,.632,3.355,5.253,5.253,0,0,1-1.657,2.968,4.648,4.648,0,0,1-1.757,1.053,8.076,8.076,0,0,1-2.461.314h-2.261l-.625,3.221h-2.639l2.354-12.114h5.074" transform="translate(-115.341 -269.173)" fill="#fff"/>
    <path id="Path_6893" data-name="Path 6893" d="M139,287.014a.244.244,0,0,1-.191-.091.252.252,0,0,1-.053-.206l1.042-5.36c.1-.509.074-.875-.068-1.031-.088-.094-.351-.252-1.131-.252h-1.887l-1.309,6.738a.249.249,0,0,1-.246.2H132.54a.244.244,0,0,1-.192-.091.247.247,0,0,1-.052-.206l2.353-12.114a.251.251,0,0,1,.245-.2h2.619a.252.252,0,0,1,.192.091.247.247,0,0,1,.052.206l-.569,2.923h2.03a4.714,4.714,0,0,1,3.205.833,2.777,2.777,0,0,1,.579,2.72l-1.1,5.638a.25.25,0,0,1-.245.2Z" transform="translate(-113.106 -269.752)"/>
    <path id="Path_6894" data-name="Path 6894" d="M137.56,274.2h-2.618a.5.5,0,0,0-.49.4L132.1,286.717a.5.5,0,0,0,.489.595h2.618a.5.5,0,0,0,.489-.4l1.27-6.537h1.681c.779,0,.941.166.949.174.047.051.109.286.006.812l-1.041,5.36a.49.49,0,0,0,.1.412.5.5,0,0,0,.384.183h2.66a.5.5,0,0,0,.489-.4l1.1-5.638a3.006,3.006,0,0,0-.652-2.95,4.934,4.934,0,0,0-3.375-.9h-1.727l.512-2.626a.5.5,0,0,0-.491-.594m0,.5-.626,3.221h2.332a4.538,4.538,0,0,1,3.036.767,2.538,2.538,0,0,1,.5,2.487l-1.1,5.638h-2.66l1.042-5.36q.179-.915-.13-1.247a1.839,1.839,0,0,0-1.314-.333h-2.092l-1.349,6.939h-2.618l2.354-12.114h2.618" transform="translate(-113.154 -269.8)" fill="#fff"/>
    <path id="Path_6895" data-name="Path 6895" d="M145.32,283.976a3.671,3.671,0,0,0,2.225-.549,2.967,2.967,0,0,0,.961-1.858,2,2,0,0,0-.178-1.691,2.521,2.521,0,0,0-1.82-.472h-1.6l-.889,4.57Zm-5.242,5.631a.249.249,0,0,1-.243-.3l2.353-12.114a.252.252,0,0,1,.245-.2h5.074a4.467,4.467,0,0,1,3.529,1.288,4.02,4.02,0,0,1,.688,3.566,5.5,5.5,0,0,1-1.734,3.1,4.931,4.931,0,0,1-1.848,1.108,8.389,8.389,0,0,1-2.539.325h-2.054l-.587,3.019a.247.247,0,0,1-.245.2Z" transform="translate(-111.283 -269.125)"/>
    <path id="Path_6896" data-name="Path 6896" d="M145.16,279.7h1.4c1.116,0,1.5.245,1.635.39a1.836,1.836,0,0,1,.119,1.477,2.745,2.745,0,0,1-.869,1.707,3.436,3.436,0,0,1-2.074.5h-1Zm2.4-2.909h-5.074a.5.5,0,0,0-.489.4l-2.354,12.114a.5.5,0,0,0,.489.594h2.639a.5.5,0,0,0,.489-.4l.549-2.818h1.848a8.607,8.607,0,0,0,2.616-.339,5.191,5.191,0,0,0,1.942-1.162,5.785,5.785,0,0,0,1.807-3.237,4.248,4.248,0,0,0-.746-3.779,4.694,4.694,0,0,0-3.715-1.373m-3.792,7.48h1.6a3.884,3.884,0,0,0,2.378-.6,3.2,3.2,0,0,0,1.054-2.008,2.2,2.2,0,0,0-.238-1.906,2.7,2.7,0,0,0-2.005-.555h-1.808l-.985,5.07m3.792-6.981a4.213,4.213,0,0,1,3.34,1.2,3.765,3.765,0,0,1,.631,3.355,5.253,5.253,0,0,1-1.657,2.968,4.653,4.653,0,0,1-1.756,1.053,8.09,8.09,0,0,1-2.462.314h-2.26l-.626,3.221h-2.639l2.354-12.114h5.074" transform="translate(-111.331 -269.173)" fill="#fff"/>
  </g>
</svg>
